<?xml version="1.0" encoding="UTF-8"?>
<svg width="24px" height="24px" viewBox="0 0 24 24" version="1.1" xmlns="http://www.w3.org/2000/svg" xmlns:xlink="http://www.w3.org/1999/xlink">
    <!-- Generator: Sketch 58 (84663) - https://sketch.com -->
    <!-- <title>矩形</title> -->
    <desc>Created with Sketch.</desc>
    <defs>
        <path d="M12,16.5 L8.50340488,18.3382688 C8.0145603,18.5952696 7.40993314,18.4073231 7.15293233,17.9184785 C7.05059326,17.7238181 7.01527859,17.50085 7.05245543,17.2840924 L7.72024568,13.3905765 L7.72024568,13.3905765 L4.8914408,10.6331732 C4.49595723,10.247672 4.48786492,9.61455874 4.87336613,9.21907516 C5.02687474,9.06159153 5.22801715,8.95910435 5.44565418,8.92747984 L9.35496636,8.35942353 L9.35496636,8.35942353 L11.1032639,4.81698575 C11.3476862,4.32173209 11.9473121,4.11839309 12.4425657,4.36281539 C12.6397783,4.46014562 12.7994058,4.61977315 12.8967361,4.81698575 L14.6450336,8.35942353 L14.6450336,8.35942353 L18.5543458,8.92747984 C19.1008907,9.00689745 19.4795721,9.51434031 19.4001545,10.0608852 C19.36853,10.2785222 19.2660428,10.4796646 19.1085592,10.6331732 L16.2797543,13.3905765 L16.2797543,13.3905765 L16.9475446,17.2840924 C17.0409056,17.8284288 16.6753178,18.3453847 16.1309813,18.4387457 C15.9142237,18.4759226 15.6912556,18.4406079 15.4965951,18.3382688 L12,16.5 L12,16.5 Z" id="path-1"></path>
    </defs>
    <g id="页面-1" stroke="none" stroke-width="1" fill="none" fill-rule="evenodd">
        <g id="社区产品-图表-潜在供应商" transform="translate(-690.000000, -140.000000)">
            <g id="编组-6" transform="translate(690.000000, 140.000000)">
                <rect id="矩形" x="0" y="0" width="24" height="24"></rect>
                <mask id="mask-2" fill="white">
                    <use xlink:href="#path-1"></use>
                </mask>
                <use id="蒙版" fill="#FF870F" xlink:href="#path-1"></use>
            </g>
        </g>
    </g>
</svg>