<?xml version="1.0" encoding="UTF-8"?>
<svg width="24px" height="24px" viewBox="0 0 24 24" version="1.1" xmlns="http://www.w3.org/2000/svg" xmlns:xlink="http://www.w3.org/1999/xlink">
    <!-- Generator: Sketch 58 (84663) - https://sketch.com -->
    <!-- <title>矩形</title> -->
    <desc>Created with Sketch.</desc>
    <defs>
        <path d="M12,16.5 L8.50340488,18.3382688 C8.0145603,18.5952696 7.40993314,18.4073231 7.15293233,17.9184785 C7.05059326,17.7238181 7.01527859,17.50085 7.05245543,17.2840924 L7.72024568,13.3905765 L7.72024568,13.3905765 L4.8914408,10.6331732 C4.49595723,10.247672 4.48786492,9.61455874 4.87336613,9.21907516 C5.02687474,9.06159153 5.22801715,8.95910435 5.44565418,8.92747984 L9.35496636,8.35942353 L9.35496636,8.35942353 L11.1032639,4.81698575 C11.3476862,4.32173209 11.9473121,4.11839309 12.4425657,4.36281539 C12.6397783,4.46014562 12.7994058,4.61977315 12.8967361,4.81698575 L14.6450336,8.35942353 L14.6450336,8.35942353 L18.5543458,8.92747984 C19.1008907,9.00689745 19.4795721,9.51434031 19.4001545,10.0608852 C19.36853,10.2785222 19.2660428,10.4796646 19.1085592,10.6331732 L16.2797543,13.3905765 L16.2797543,13.3905765 L16.9475446,17.2840924 C17.0409056,17.8284288 16.6753178,18.3453847 16.1309813,18.4387457 C15.9142237,18.4759226 15.6912556,18.4406079 15.4965951,18.3382688 L12,16.5 L12,16.5 Z" id="path-1"></path>
    </defs>
    <g id="页面-1" stroke="none" stroke-width="1" fill="none" fill-rule="evenodd">
        <g id="社区产品-图表-潜在供应商" transform="translate(-690.000000, -76.000000)">
            <g id="区域当前" transform="translate(172.000000, 64.000000)">
                <g id="编组-6" transform="translate(518.000000, 12.000000)">
                    <rect id="矩形" x="0" y="0" width="24" height="24"></rect>
                    <mask id="mask-2" fill="white">
                        <use xlink:href="#path-1"></use>
                    </mask>
                    <path stroke-opacity="0.319711538" stroke="#000620" d="M8.27073432,17.8957031 L12,15.9351121 L15.7292657,17.8957031 C15.8265959,17.9468727 15.93808,17.96453 16.0464588,17.9459416 C16.318627,17.8992611 16.5014209,17.6407831 16.4547404,17.3686149 L15.742514,13.2160165 L18.7595534,10.27513 C18.8382952,10.1983757 18.8895388,10.0978045 18.905351,9.98898601 C18.9450598,9.71571358 18.7557191,9.46199215 18.4824467,9.42228334 L14.3130009,8.81642741 L12.448368,5.03826861 C12.3997029,4.9396623 12.3198892,4.85984854 12.2212829,4.81118342 C11.973656,4.68897228 11.6738431,4.79064178 11.551632,5.03826861 L9.68699912,8.81642741 L5.51755334,9.42228334 C5.40873482,9.4380956 5.30816362,9.48933919 5.23140931,9.56808101 C5.03865871,9.7658228 5.04270486,10.0823794 5.24044665,10.27513 L8.25748596,13.2160165 L7.54525959,17.3686149 C7.52667117,17.4769937 7.54432851,17.5884777 7.59549804,17.685808 C7.72399845,17.9302303 8.02631203,18.0242035 8.27073432,17.8957031 Z"></path>
                </g>
            </g>
        </g>
    </g>
</svg>