<?xml version="1.0" encoding="UTF-8"?>
<svg width="91px" height="20px" viewBox="0 0 91 20" version="1.1" xmlns="http://www.w3.org/2000/svg" xmlns:xlink="http://www.w3.org/1999/xlink">
    <!-- Generator: Sketch 58 (84663) - https://sketch.com -->
    <title>编组 4</title>
    <desc>Created with Sketch.</desc>
    <defs>
        <linearGradient x1="12.9889503%" y1="41.5844839%" x2="87.8850802%" y2="58.3306679%" id="linearGradient-1">
            <stop stop-color="#008CFF" offset="0%"></stop>
            <stop stop-color="#2F54C9" offset="100%"></stop>
        </linearGradient>
        <linearGradient x1="12.9889503%" y1="49.9729584%" x2="87.8850802%" y2="50.026769%" id="linearGradient-2">
            <stop stop-color="#008CFF" offset="0%"></stop>
            <stop stop-color="#2F54C9" offset="100%"></stop>
        </linearGradient>
    </defs>
    <g id="页面-1" stroke="none" stroke-width="1" fill="none" fill-rule="evenodd">
        <g id="登录页" transform="translate(-32.000000, -12.000000)">
            <g id="编组-4" transform="translate(32.000000, 12.000000)">
                <g id="编组-27">
                    <path d="M7.55613644,18.6378378 L3.5561078,18.6378378 L4.82728501,15.6540541 L4.38138348,15.8810811 C4.16900083,15.9891897 3.99446435,16.0864861 3.85778066,16.172973 L3.84075774,15.3945946 L1.90206477,19.9351351 L0,19.9351351 L3.47392149,11.827027 L6.10892833,11.827027 L5.8996146,10.9189189 L7.87010776,10.7243243 L3.49903575,10.7243243 L4.16606954,9.16756757 L9.07712011,9.16756757 C9.09166149,8.82161989 9.11362017,8.49729881 9.14297828,8.19459459 L11.554821,8 C11.471227,8.43243459 11.4059641,8.82161989 11.3590224,9.16756757 L15.9724335,9.16756757 L15.3207987,10.7243243 L10.9497267,10.7243243 L12.7553665,10.9189189 L11.7766789,11.827027 L14.4116858,11.827027 L10.9497267,20 L8.97171634,20 L11.0287113,15.3945946 L10.3291638,16.1143598 C10.2610249,15.9377813 10.0808362,15.7533348 9.78859776,15.5610205 C9.6874812,15.7533348 9.26136911,16.7789406 8.5102615,18.6378378 L7.55613644,18.6378378 Z M8.01912158,10.7243243 L8.24676408,11.827027 L9.58912606,11.827027 L10.8007129,10.7243243 L8.01912158,10.7243243 Z M7.63219637,14.0972973 C7.39278059,14.2702711 7.06109962,14.4648638 6.63708883,14.6810811 C6.5006766,14.767568 6.39005231,14.8324322 6.30522007,14.8756757 L9.09647673,14.8756757 L8.90336281,14.7135137 L8.61318805,14.4864865 C8.43557506,14.3567561 8.31528045,14.2486491 8.25227404,14.1621622 L9.15695934,13.3189189 L7.36491047,13.3189189 L7.63219637,14.0972973 Z M5.81217961,17.2108108 L7.51017333,17.2108108 L7.92195215,16.2378378 L6.22533445,16.2378378 L5.81217961,17.2108108 Z M4.22835183,14.4864865 C4.94054832,14.1405388 5.68741294,13.7513535 6.46888603,13.3189189 L4.72661629,13.3189189 L4.22835183,14.4864865 Z M11.8948118,13.3189189 L10.152542,13.3189189 L10.5852308,13.6419201 C10.9260363,13.9022618 11.2170192,14.1405395 11.4581282,14.3567568 L11.8948118,13.3189189 Z M28,8.64864865 L23.3580698,20 L11.9951228,20 L16.7442034,8.64864865 L28,8.64864865 Z M20.7393788,14.2713784 L19.8573784,14.2713784 C19.7341153,14.347586 19.2914037,14.5832827 19.2159813,14.6251376 C19.1656996,14.6530408 19.0937059,14.6875355 19,14.7286216 L19,14.7286216 L21,14.7286216 C20.9102972,14.6143102 20.8234159,14.4618974 20.7393788,14.2713784 L20.7393788,14.2713784 Z M24.2655283,12.7995162 L23.7861526,13.9670837 L22.5411348,13.9670837 C22.8328202,14.2265445 23.2343617,14.4211371 23.7457359,14.5508675 L25.580002,10.0756757 L18.0340665,10.0756757 L16.1182664,14.6805972 C16.2027289,14.6373538 16.3204027,14.594111 16.4712878,14.5508675 C16.941883,14.3778937 17.421346,14.183301 17.9096686,13.9670837 L16.6148501,13.9670837 L17.1012164,12.7995162 L19.4395682,12.7995162 C19.5417552,12.7130292 19.6363105,12.6049222 19.7232384,12.4751918 L17.435259,12.4751918 L17.8943294,11.3724891 L18.7391078,11.3724891 L18.6836929,10.7887053 C18.6865431,10.7022184 18.6804066,10.6373542 18.6652817,10.5941107 L20.208884,10.464381 L20.2079248,10.8860026 C20.2100678,11.0805982 20.200831,11.2427587 20.1802002,11.3724891 L20.4783573,11.3724891 C20.6520465,11.1130284 20.8104896,10.8103287 20.9537105,10.464381 L22.5923286,10.464381 C22.5566427,10.5508679 22.4820983,10.6914071 22.3686838,10.8860026 C22.2552564,11.0805982 22.1552044,11.2427587 22.0685282,11.3724891 L22.466071,11.3724891 L22.7332864,11.0715162 C22.8873434,10.9002735 23.0720867,10.6978957 23.2875,10.464381 L24.6742008,10.5941107 C24.4351461,10.8535715 24.1629126,11.1130284 23.8574706,11.3724891 L24.6028632,11.3724891 L24.1499812,12.4751918 L21.3646149,12.4751918 C21.2447021,12.6049222 21.1668748,12.7130292 21.1311419,12.7995162 L24.2655283,12.7995162 Z M22.6843039,16.0427594 C22.1924055,15.7832986 21.8248393,15.5454632 21.5814909,15.3292459 C21.5696116,15.3580749 21.5500794,15.3965131 21.5228935,15.4445611 L21.4763727,15.5238405 C21.4415305,15.5814984 21.4143417,15.6295463 21.3948066,15.6679846 L21.3712443,15.7184351 C21.0884655,16.3238435 20.6309561,16.6265432 19.998743,16.6265432 L18.6511376,16.6265432 L18.7432284,16.0427594 C18.745797,15.9562725 18.7560397,15.8914083 18.7739534,15.8481648 L19.7216532,15.8481648 C19.92117,15.8481648 20.0566635,15.7616792 20.1281365,15.5887053 L18.3827513,15.5887053 L18.0330786,16.4319486 C17.940822,16.7346528 17.9945419,16.8860026 18.1942313,16.8860026 L20.5405702,16.8860026 C20.7735412,16.8860026 20.9767745,16.7562742 21.1502518,16.4968134 C21.1680716,16.45357 21.2247985,16.3562737 21.3204269,16.2049216 C21.4160456,16.0535694 21.5071997,15.9130303 21.5938931,15.7832999 C21.6263536,15.8121289 21.6662052,15.8409576 21.7134491,15.8697864 L21.7898628,15.9130297 C22.0025155,16.04276 22.2983749,16.1724885 22.6774768,16.3022189 L22.346129,16.804922 C22.2550837,16.9454622 22.1834611,17.0589752 22.131265,17.1454621 C21.7158556,17.7508705 21.2005049,18.0319488 20.585373,17.9887053 L17.2375187,17.9887053 C16.3427289,18.0294051 16.0909114,17.552986 16.4820905,16.5594347 L16.7518176,15.9130297 C16.7296478,15.9130297 16.6960913,15.9226392 16.6511467,15.9418584 L16.575186,15.9778945 C16.406168,16.0643814 16.187242,16.1508671 15.9183904,16.237354 C15.9059051,16.1076236 15.896211,15.8914096 15.889344,15.5887053 C15.8769222,15.458975 15.8721209,15.3508679 15.8749331,15.264381 L14.5853849,18.4683723 L22.1821578,18.4683723 L23.5859788,14.9400567 C23.5682273,14.9833002 23.5083703,15.0481644 23.4063985,15.1346513 L23.0561487,15.5601653 C22.9014715,15.752165 22.7775196,15.913029 22.6843039,16.0427594 Z" id="商圈" fill-opacity="0.65" fill="#000620" fill-rule="nonzero"></path>
                    <path d="M74.3040711,14.5394483 L73.5980037,16.4257875 L68.8137417,16.4324933 L67.551259,19.9352677 L65.5334749,19.9352677 L66.784091,16.435348 L62,16.4421003 L62.6698632,14.564201 L67.4688436,14.553955 L68.939355,10.5924385 L64.6947119,10.6077646 L65.3710129,8.79036824 L75.9409285,8.74540156 L75.2335837,10.5698352 L70.9885801,10.5850633 L69.5048299,14.5496233 L74.3040711,14.5394483 Z M65.7883616,10.7334588 C66.3283886,11.509562 66.81401,12.2428559 67.2453759,12.9333032 L65.2256101,14.4291548 C64.8266603,13.5662296 64.3740407,12.7900429 63.8674168,12.1005898 L65.7883616,10.7334588 Z M73.9217579,10.615819 L74.9065658,11.8458666 C73.5785819,12.901258 72.4373061,13.768047 71.4803247,14.4468525 L70.5936823,13.0804125 C71.7018382,12.3030476 72.8110533,11.4815534 73.9217579,10.615819 Z M85.290813,14.122728 L82.9517521,20 L73.3461842,20 L75.5903056,14.1445243 L85.290813,14.122728 Z M82.6949833,16 L76.9228715,16 L76,18 L81.786815,18 L82.6949833,16 Z M81.6984667,8 L83.3265827,9.03693263 C81.9846573,9.86865982 80.5638795,10.6998556 79.0645484,11.5304629 L79.8727251,11.5178114 C80.7203564,11.497651 81.9507926,11.4535691 83.5642838,11.3855219 C83.4220696,11.0814283 83.2142527,10.7340924 82.9407303,10.3435378 L84.7542838,9.09640264 C85.4578414,10.1385144 86.2064742,11.3116332 87,12.6159651 L85.0187789,14.0580386 C84.9700786,14.0146174 84.9146633,13.9059194 84.8525361,13.7319457 L84.7209701,13.4565866 C84.6401497,13.2923562 84.5731287,13.1667888 84.5199094,13.079878 L83.5102872,13.1327284 C83.1123628,13.1504972 82.6530398,13.1684209 82.1323221,13.1864986 L79.6725318,13.2634505 C78.9883972,13.2816599 78.4521977,13.29126 78.0638959,13.2922568 C77.0172627,13.3383493 76.210845,13.4488851 75.6447717,13.6238351 L75.66581,11.6715478 C76.3685687,11.4089403 77.0480024,11.0811701 77.7043944,10.6881849 C78.665489,10.1201584 79.9952107,9.22438572 81.6984667,8 Z" id="平台" fill="#505669" fill-rule="nonzero"></path>
                    <path d="M34.868066,4.53090827 L46.9691729,4.53090827 L40.768217,19.9162882 L37.9856677,19.9162882 L43.4838987,6.7911268 L36.6625384,6.7911268 L31.6655721,19.9162882 L29.0021624,19.9162882 L34.868066,4.53090827 Z M41.2027332,10.7140053 L38.7741764,16.9863753 L33.4424378,16.9863753 L35.8625644,10.7140053 L41.2027332,10.7140053 Z M28.5595713,13.1356326 L30.7738464,13.9727506 C30.1855213,14.921489 29.3222507,16.4282863 28.1889642,18.4931876 L27.6930082,19.3721621 C27.5549279,19.6232969 27.4438511,19.8325756 27.3597236,20 L25,19.162882 L25.3810014,18.5683561 C26.1863936,17.2904698 27.2440112,15.4795747 28.5595713,13.1356326 Z M42.5073666,7.86780414 L41.7016784,9.96059908 L35.9388648,9.96059908 L36.7417916,7.86780414 L42.5073666,7.86780414 Z M27.9300609,10.7079905 L30.2108714,8.78261913 L32.0443842,10.7917023 L29.6056987,12.968209 C29.150588,12.186895 28.5920946,11.4334963 27.9300609,10.7079905 Z M37.7415989,14.4810361 L38.4027068,12.7230884 L37.2088085,12.7230884 L36.5482746,14.4810361 L37.7415989,14.4810361 Z M57.9747876,4 L57.8182855,4.5453541 L64,4.5453541 L62.7294621,7.93061935 L62.2059367,7.93061935 L61.4720971,10.3311464 L58.5931046,12.4467529 C59.2185758,12.8737254 59.9997859,13.116186 60.9970378,13.4211664 C60.3530981,14.2751115 60.0064878,14.7011462 59.5000649,15.4330991 C58.964719,15.2501109 58.4758431,15.0061302 58.0335453,14.7011498 L57.4472858,16.256542 L55.9335725,16.256542 L57.4472858,19.8934149 L54.7928816,19.8934149 L53.9142073,16.9713118 L54.5900569,16.256542 L53.2609962,16.256542 L51.6302947,19.9162882 L48.8941502,19.9162882 L50.5880588,16.256542 L48.4174874,16.256542 L49.1156642,16.9713118 L46.4926982,19.9162882 L43.8284147,19.8934149 L45.744415,17.8119341 L47.1908762,16.256542 L45.9349893,16.256542 L46.4006911,15.0671245 C45.7011637,15.3111088 44.9308356,15.6160846 44.0894977,15.982061 C44.0991857,15.2501081 44.0863679,14.5181662 44.0511112,13.7862133 C44.9597753,13.4812329 45.7399858,13.2067547 46.3919609,12.9627704 C46.3507812,12.9261728 46.2974104,12.8676172 46.2318605,12.7871029 L45.744415,12.1393275 L47.5282453,11.1328973 L47.6645503,11.2939261 C47.6918639,11.323204 47.7214745,11.3537018 47.7533827,11.3854196 L48.1917104,11.7953116 C48.2876175,11.8904648 48.3628808,11.9746386 48.4174874,12.0478338 L48.941167,11.7733529 C49.0112608,11.7123568 49.0694243,11.6818592 49.1156642,11.6818592 L48.9788971,11.5208304 C48.9241437,11.4622746 48.8602199,11.3988392 48.7871303,11.3305239 L48.4515858,11.0194449 C48.3558773,10.9242917 48.2808353,10.840118 48.2264452,10.7669227 L49.9721346,9.6689988 C50.1311722,9.85198703 50.336467,10.0349725 50.5880588,10.2179607 L50.8965073,10.4924417 C51.0824931,10.3704496 51.3271084,10.1569665 51.6302947,9.85198611 L51.9445485,9.57750515 L49.6621129,9.57750515 C49.0796264,10.0044777 48.0905548,10.5839317 46.6936757,11.3158846 L46.1796793,11.5501083 L46.0999802,11.5903656 L46.0999802,11.5903656 C46.0557083,11.4683734 46.0245293,11.2548904 46.0065212,10.94991 C45.9467626,10.4009453 45.8852484,9.97397918 45.8217397,9.6689988 C47.4242428,8.99804198 48.5740656,8.41858795 49.2725126,7.93061935 L46.8571627,7.93061935 L48.2022852,4.5453541 L54.5900569,4.5453541 L54.7928816,4 L57.9747876,4 Z M59.1550931,9.57914736 L57.021021,9.57914736 C57.0638922,9.9695811 57.2823061,10.4894377 57.4321613,10.7334588 L57.4321613,10.7334588 L59.1550931,9.57914736 Z M57.0088058,6.83269549 C57.0070869,7.07667979 56.9707612,7.35115801 56.8998144,7.65613839 L60.2800312,7.65613839 L60.6958804,6.55821452 L50.0195512,6.55821452 L49.5515179,7.74763204 C49.9233775,7.50364774 50.2960345,7.19867194 50.6694773,6.83269549 L53.2878956,6.83269549 C52.9157771,7.19867194 52.5442208,7.50364774 52.1732398,7.74763204 L54.3810057,7.74763204 L54.4540542,7.33591082 C54.4785886,7.18342178 54.5033009,7.01568371 54.528199,6.83269549 L57.0088058,6.83269549 Z M55.5620566,13.5117323 L50.2085415,13.5117323 L50.4215937,12.9627704 L49.8366286,13.3058713 C49.5979037,13.4431114 49.3154502,13.603226 48.9892292,13.7862133 L48.6088884,13.9911593 C48.4382156,14.0863125 48.296846,14.1704863 48.1847898,14.2436816 L57.2317685,14.2436816 C57.1573658,14.1460879 57.0310168,14.0289768 56.8527613,13.8923462 L56.5463255,13.6661279 C56.3594348,13.5174511 56.1010124,13.2829998 55.7712786,12.9627704 L55.5620566,13.5117323 Z M54.9075679,11.5903656 C54.6097962,11.0414009 54.4517124,10.4314493 54.4331505,9.76049246 L53.7017906,10.400948 C53.4691554,10.6449323 53.0158883,11.0414009 52.3415778,11.5903656 L54.9075679,11.5903656 Z" id="洞察" fill="url(#linearGradient-1)" fill-rule="nonzero"></path>
                    <path d="M29.174462,4.00082539 C29.2174499,4.40137587 29.3007054,5.48005986 29.7761754,5.97735964 L5,5.97735964 L5.98818093,4 L29.174462,4.00082539 Z M91,4.02175007 L90.0118191,5.99910971 L64.7570081,6 C65.0040421,5.53541178 65.5140975,4.43253461 65.6822235,4.02168351 L91,4.02175007 Z" id="形状备份" fill="url(#linearGradient-2)" fill-rule="nonzero"></path>
                    <path d="M33.3979473,0 C34.6893072,0 35.3303726,1.08746258 34.8298071,2.42891566 C34.4960967,3.32321772 33.1481226,4.84691249 30.7858849,7 C30.030504,4.84691249 29.8196688,3.32321772 30.1533792,2.42891566 C30.6539448,1.08746258 32.1065874,0 33.3979473,0 Z M32.7937112,1.61927711 C32.3632579,1.61927711 31.8790437,1.98176464 31.7121885,2.42891566 C31.5453333,2.87606669 31.7590218,3.23855422 32.1894751,3.23855422 C32.6199284,3.23855422 33.1041426,2.87606669 33.2709978,2.42891566 C33.437853,1.98176464 33.2241645,1.61927711 32.7937112,1.61927711 Z" id="形状结合备份" fill="#E55151"></path>
                </g>
            </g>
        </g>
    </g>
</svg>